<svg width="30" height="30" viewBox="0 0 30 30" fill="none" xmlns="http://www.w3.org/2000/svg">
<path d="M28.125 9.375V4.52637C28.125 4.28008 28.0764 4.03622 27.9821 3.8087C27.8878 3.58119 27.7496 3.37448 27.5754 3.20039L24.924 0.549023C24.5725 0.197555 24.0957 7.50955e-05 23.5986 0H9.375C8.87772 0 8.40081 0.197544 8.04918 0.549175C7.69754 0.900806 7.5 1.37772 7.5 1.875V28.125C7.5 28.6223 7.69754 29.0992 8.04918 29.4508C8.40081 29.8025 8.87772 30 9.375 30H28.125C28.6223 30 29.0992 29.8025 29.4508 29.4508C29.8025 29.0992 30 28.6223 30 28.125V11.25C30 10.7527 29.8025 10.2758 29.4508 9.92418C29.0992 9.57254 28.6223 9.375 28.125 9.375ZM16.875 25.3125C16.875 25.5611 16.7762 25.7996 16.6004 25.9754C16.4246 26.1512 16.1861 26.25 15.9375 26.25H14.0625C13.8139 26.25 13.5754 26.1512 13.3996 25.9754C13.2238 25.7996 13.125 25.5611 13.125 25.3125V23.4375C13.125 23.1889 13.2238 22.9504 13.3996 22.7746C13.5754 22.5988 13.8139 22.5 14.0625 22.5H15.9375C16.1861 22.5 16.4246 22.5988 16.6004 22.7746C16.7762 22.9504 16.875 23.1889 16.875 23.4375V25.3125ZM16.875 17.8125C16.875 18.0611 16.7762 18.2996 16.6004 18.4754C16.4246 18.6512 16.1861 18.75 15.9375 18.75H14.0625C13.8139 18.75 13.5754 18.6512 13.3996 18.4754C13.2238 18.2996 13.125 18.0611 13.125 17.8125V15.9375C13.125 15.6889 13.2238 15.4504 13.3996 15.2746C13.5754 15.0988 13.8139 15 14.0625 15H15.9375C16.1861 15 16.4246 15.0988 16.6004 15.2746C16.7762 15.4504 16.875 15.6889 16.875 15.9375V17.8125ZM24.375 25.3125C24.375 25.5611 24.2762 25.7996 24.1004 25.9754C23.9246 26.1512 23.6861 26.25 23.4375 26.25H21.5625C21.3139 26.25 21.0754 26.1512 20.8996 25.9754C20.7238 25.7996 20.625 25.5611 20.625 25.3125V23.4375C20.625 23.1889 20.7238 22.9504 20.8996 22.7746C21.0754 22.5988 21.3139 22.5 21.5625 22.5H23.4375C23.6861 22.5 23.9246 22.5988 24.1004 22.7746C24.2762 22.9504 24.375 23.1889 24.375 23.4375V25.3125ZM24.375 17.8125C24.375 18.0611 24.2762 18.2996 24.1004 18.4754C23.9246 18.6512 23.6861 18.75 23.4375 18.75H21.5625C21.3139 18.75 21.0754 18.6512 20.8996 18.4754C20.7238 18.2996 20.625 18.0611 20.625 17.8125V15.9375C20.625 15.6889 20.7238 15.4504 20.8996 15.2746C21.0754 15.0988 21.3139 15 21.5625 15H23.4375C23.6861 15 23.9246 15.0988 24.1004 15.2746C24.2762 15.4504 24.375 15.6889 24.375 15.9375V17.8125ZM24.375 11.25H11.25V3.75H20.625V6.5625C20.625 6.81114 20.7238 7.0496 20.8996 7.22541C21.0754 7.40123 21.3139 7.5 21.5625 7.5H24.375V11.25ZM3.75 7.5H1.875C1.37772 7.5 0.900806 7.69754 0.549175 8.04918C0.197544 8.40081 0 8.87772 0 9.375L0 28.125C0 28.6223 0.197544 29.0992 0.549175 29.4508C0.900806 29.8025 1.37772 30 1.875 30H3.75C4.24728 30 4.72419 29.8025 5.07583 29.4508C5.42746 29.0992 5.625 28.6223 5.625 28.125V9.375C5.625 8.87772 5.42746 8.40081 5.07583 8.04918C4.72419 7.69754 4.24728 7.5 3.75 7.5Z" fill="white"/>
</svg>
