<svg width="30" height="30" viewBox="0 0 30 30" fill="none" xmlns="http://www.w3.org/2000/svg">
<path d="M29.1445 21.1991L22.5818 18.3865C22.3015 18.267 21.9899 18.2419 21.694 18.3148C21.3981 18.3877 21.1339 18.5548 20.9412 18.7908L18.0349 22.3417C13.4737 20.1911 9.80303 16.5204 7.65248 11.9593L11.2033 9.05295C11.4399 8.86057 11.6073 8.59636 11.6802 8.30033C11.7532 8.00429 11.7277 7.69255 11.6076 7.4123L8.79508 0.849679C8.66331 0.547569 8.43025 0.300907 8.13609 0.152225C7.84194 0.00354214 7.50512 -0.0378408 7.18372 0.0352115L1.08986 1.44149C0.779996 1.51304 0.503531 1.68751 0.305592 1.93643C0.107653 2.18534 -7.13808e-05 2.494 3.54862e-08 2.81202C3.54862e-08 17.8416 12.1819 30 27.188 30C27.5061 30.0002 27.8149 29.8925 28.0639 29.6946C28.313 29.4966 28.4875 29.2201 28.5591 28.9101L29.9654 22.8163C30.038 22.4933 29.9957 22.1552 29.8459 21.86C29.696 21.5648 29.448 21.3311 29.1445 21.1991Z" fill="white"/>
</svg>
