<svg width="75" height="75" viewBox="0 0 75 75" fill="none" xmlns="http://www.w3.org/2000/svg">
<rect x="1.5" y="1.5" width="72" height="72" rx="10.5" fill="#F26721" stroke="white" stroke-width="3"/>
<path d="M56.9118 24.0588H47.6453V21.8529C47.6439 20.5663 47.1321 19.3328 46.2223 18.423C45.3125 17.5132 44.079 17.0015 42.7924 17H32.2042C30.9175 17.0015 29.684 17.5132 28.7742 18.423C27.8644 19.3328 27.3527 20.5663 27.3512 21.8529V24.0588H18.0882C17.2695 24.0597 16.4845 24.3854 15.9055 24.9644C15.3266 25.5433 15.0009 26.3283 15 27.1471V55.3824C15.0009 56.2011 15.3266 56.9861 15.9055 57.5651C16.4845 58.144 17.2695 58.4697 18.0882 58.4706H56.9118C57.7305 58.4697 58.5155 58.144 59.0945 57.5651C59.6734 56.9861 59.9991 56.2011 60 55.3824V27.1471C59.9991 26.3283 59.6734 25.5433 59.0945 24.9644C58.5155 24.3854 57.7305 24.0597 56.9118 24.0588ZM29.9983 21.8529C29.999 21.2681 30.2316 20.7074 30.6451 20.2939C31.0587 19.8804 31.6193 19.6477 32.2042 19.6471H42.7924C43.3772 19.6477 43.9379 19.8804 44.3514 20.2939C44.765 20.7074 44.9976 21.2681 44.9983 21.8529V24.0588H29.9983V21.8529ZM18.0882 26.7059H56.9118C57.0287 26.706 57.1409 26.7526 57.2236 26.8353C57.3063 26.918 57.3528 27.0301 57.3529 27.1471V36.5844C51.2749 39.9447 44.4433 41.7069 37.4983 41.7059C30.5546 41.7069 23.7242 39.9454 17.6471 36.5864V27.1471C17.6472 27.0301 17.6937 26.918 17.7764 26.8353C17.8591 26.7526 17.9713 26.706 18.0882 26.7059ZM56.9118 55.8235H18.0882C17.9713 55.8234 17.8591 55.7768 17.7764 55.6941C17.6937 55.6114 17.6472 55.4993 17.6471 55.3824V39.5838C23.7948 42.7185 30.5975 44.3529 37.4983 44.3529C44.4004 44.3529 51.2043 42.7179 57.3529 39.5821V55.3824C57.3528 55.4993 57.3063 55.6114 57.2236 55.6941C57.1409 55.7768 57.0287 55.8234 56.9118 55.8235ZM33.5277 35.9706C33.5277 35.6196 33.6672 35.2829 33.9154 35.0347C34.1636 34.7865 34.5002 34.6471 34.8512 34.6471H40.1453C40.4964 34.6471 40.833 34.7865 41.0812 35.0347C41.3294 35.2829 41.4689 35.6196 41.4689 35.9706C41.4689 36.3216 41.3294 36.6583 41.0812 36.9065C40.833 37.1547 40.4964 37.2941 40.1453 37.2941H34.8512C34.5002 37.2941 34.1636 37.1547 33.9154 36.9064C33.6672 36.6582 33.5277 36.3216 33.5277 35.9706Z" fill="white"/>
</svg>
